<svg id="bd32b4dd-e805-49da-9929-496f0cf6f10e" data-name="fc2b8543-58c7-429f-a75e-4250c588eceb" xmlns="http://www.w3.org/2000/svg" xmlns:xlink="http://www.w3.org/1999/xlink" viewBox="0 0 100 100" width="48" height="48"><defs><linearGradient id="fd8fe4c9-0800-4cc5-8fab-a7058b83f197" x1="-216.13" y1="-256.86" x2="-214.67" y2="-237.98" gradientTransform="matrix(1, 0, 0, -1, 263.47, -178.56)" gradientUnits="userSpaceOnUse"><stop offset="0" stop-color="#fff"/><stop offset="1"/></linearGradient><linearGradient id="bcce40ee-bf37-4322-a2d8-22d9097c461d" x1="-297.23" y1="-421.03" x2="-297.03" y2="-418.69" gradientTransform="matrix(1, 0, 0, -1, 343.47, -382.23)" xlink:href="#fd8fe4c9-0800-4cc5-8fab-a7058b83f197"/><linearGradient id="b6e69026-bf7e-43bc-8193-0ddd08f6ad2e" x1="-211.79" y1="-416.17" x2="-211.65" y2="-413.84" gradientTransform="matrix(1, 0, 0, -1, 239.93, -376.47)" xlink:href="#fd8fe4c9-0800-4cc5-8fab-a7058b83f197"/><mask id="a8a7874e-a9a2-4077-94c2-a9294bfd6341" x="30.4" y="58.06" width="35.78" height="16.15" maskUnits="userSpaceOnUse"><g id="afadf33d-6715-496e-988f-99c26cd5a5bb" data-name="fdaca280-d3f8-4437-bafa-a9ede03602be"><rect x="30.4" y="58.06" width="35.77" height="16.15" fill="url(#fd8fe4c9-0800-4cc5-8fab-a7058b83f197)"/></g></mask><mask id="fa31da17-ceb6-44f0-963b-d80023299c2d" x="44.43" y="36.04" width="3.88" height="2.67" maskUnits="userSpaceOnUse"><g id="b8a1828a-d977-4ac1-a772-69089ad60d21" data-name="b643cd0e-1687-4240-af94-4bec5e9b1afb"><rect x="44.43" y="36.04" width="3.88" height="2.67" fill="url(#bcce40ee-bf37-4322-a2d8-22d9097c461d)"/></g></mask><mask id="bca7e80f-59db-4260-b05a-60a5013184e6" x="26.27" y="36.93" width="3.91" height="2.79" maskUnits="userSpaceOnUse"><g id="bf8de550-be7a-4935-968f-88e7f3f2817f" data-name="a567aa20-004c-45d6-9197-c8f03d1403e6"><rect x="26.27" y="36.93" width="3.91" height="2.79" fill="url(#b6e69026-bf7e-43bc-8193-0ddd08f6ad2e)"/></g></mask></defs><title>sid-100x100</title><path d="M39.71,66.61v8s-4,3.49-5.27,5.57A27.44,27.44,0,0,0,32.9,83a84,84,0,0,0-11.44,4.69A38,38,0,0,0,75,86.11a37,37,0,0,0,4.94-6.48,51,51,0,0,0-11.76-3.09S65,68.41,63.74,68.05a12.88,12.88,0,0,0-3.13-.31s-.16-11.44,0-11.71-2.77-.47-2.77-.47Z" fill="#808cb8" fill-rule="evenodd"/><path d="M68.73,76.62l-.58-.08s-5.27,14-6.07,14.34-10.81-2.95-10.81-2.95l-6.1,2.73a5,5,0,0,1-.86,2.8c-.8,1.11-6.51,2.44-8.19,2.74.81.26,1.64.48,2.47.68l3.56-.61c5.17-.85,9.19-5.26,11.7-5.35s8.83.84,9,.47,5-12.38,5.92-14.77" fill="#4d577a" fill-rule="evenodd"/><path d="M39.71,66.61v8a39.29,39.29,0,0,0-3.66,6.1c-.71,2-.68,9.08-.68,9.08s.88-1.72,2.28-1.07,3,4.27,3,4.27,8.28-4.8,9.19-5.65,10.76-14.28,12-15.91c1-1.39,1.8-2.55,1.74-3.42a13,13,0,0,0-3-.27S60.44,56.3,60.6,56s-2.76-.47-2.76-.47Z" fill="#4d577a" fill-rule="evenodd"/><path d="M32.9,83a4.61,4.61,0,0,1-1.65.56,30.71,30.71,0,0,0-2.55,3.74,18.69,18.69,0,0,0-1.44,4.87l.38.23a7.55,7.55,0,0,1,3.27-2c1.62-.19,4.28,1.44,4.28,1.44a3.18,3.18,0,0,1,2.35-.56,5.22,5.22,0,0,1,2,1.59,10.77,10.77,0,0,0-4.13,2.39,3.8,3.8,0,0,0-.42.57l.8.27c.06-.11.13-.21.19-.31,1.1-1.74,4.69-2.87,4.69-2.87s-1.73-2.41-3-2.55a3.27,3.27,0,0,0-2.33.83s-2.72-2.17-3-3a14.36,14.36,0,0,1,0-3.13s-1,.56-1.75,1.07-2.84,5.44-2.84,5.44A21.23,21.23,0,0,1,29,87.88,11.35,11.35,0,0,1,32.91,83" fill="#4d577a" fill-rule="evenodd"/><path d="M39.71,66.61v8s.76,7.86,0,9.65-2,3.86-2,4.17a27.51,27.51,0,0,0,3,4.53c.18-.08,8.41-5,9.34-6.52S61.09,73,61.14,72.25a43.84,43.84,0,0,0-.54-4.5s-.16-11.44,0-11.71-2.76-.48-2.76-.48Z" fill="#db9064" fill-rule="evenodd"/><path d="M39.81,84a2.47,2.47,0,0,1-.1.29c-.76,1.8-2,3.87-2,4.18a27.41,27.41,0,0,0,3,4.52l1.13-.67a12.29,12.29,0,0,1-1.91-3.09A11.65,11.65,0,0,1,39.81,84m.11-.6Z" fill="#cc794a" fill-rule="evenodd"/><path d="M39.71,66.61v6.27a7.75,7.75,0,0,1,3.07,2.65,56.36,56.36,0,0,1,4,8.35s1.31-2.94,6.42-3.95a23.32,23.32,0,0,1,2.34-.36c2.8-3.44,5.6-6.93,5.64-7.34a43.84,43.84,0,0,0-.54-4.5s-.16-11.43,0-11.71-2.77-.46-2.77-.46Z" fill="#cc794a" fill-rule="evenodd" opacity="0.5" style="isolation:isolate"/><path d="M39.71,66.61v4.67C42.38,72,45.47,73,46.92,74l4,2.88s6.82-7.34,7.27-10.55a8,8,0,0,1,2.33-3.49c0-3.14,0-6.67.05-6.82s-2.76-.47-2.76-.47Z" fill="#cc794a" fill-rule="evenodd"/><path d="M32.9,83A11.51,11.51,0,0,0,29,87.86a21.23,21.23,0,0,0-1.25,3.75s2.08-4.93,2.84-5.44,1.75-1.07,1.75-1.07a14.36,14.36,0,0,0,0,3.13c.23.79,3,3,3,3a3.29,3.29,0,0,1,2.32-.82c1.32.13,3,2.55,3,2.55S37.06,94,36,95.78c-.06.1-.13.2-.19.31" fill="none" stroke="#3d414f" stroke-linecap="round" stroke-linejoin="round" stroke-width="1.55"/><path d="M36.12,96.2c1.68-.3,7.39-1.63,8.19-2.75a5.06,5.06,0,0,0,.85-2.79l6.1-2.74s10,3.3,10.82,3,6.06-14.34,6.06-14.34" fill="none" stroke="#3d414f" stroke-linecap="round" stroke-linejoin="round" stroke-width="1.55"/><path d="M39.71,66.61v8s.76,7.86,0,9.65-2,3.86-2,4.17a27.51,27.51,0,0,0,3,4.53c.18-.08,8.41-5,9.34-6.52S61.09,73,61.14,72.25a43.84,43.84,0,0,0-.54-4.5s-.16-11.44,0-11.71-2.76-.48-2.76-.48Z" fill="none" stroke="#3d414f" stroke-linecap="round" stroke-linejoin="round" stroke-width="1.55"/><path d="M39.71,66.61v8s-4,3.49-5.27,5.57A27.44,27.44,0,0,0,32.9,83a84,84,0,0,0-11.44,4.69A38,38,0,0,0,75,86.11a37,37,0,0,0,4.94-6.48,51,51,0,0,0-11.76-3.09S65,68.41,63.74,68.05a12.88,12.88,0,0,0-3.13-.31s-.16-11.44,0-11.71-2.77-.47-2.77-.47Z" fill="none" stroke="#3d414f" stroke-linecap="round" stroke-linejoin="round" stroke-width="1.55"/><path d="M66.92,53.24s-.3,7.64-4.08,11.39-14.46,7.9-18.36,8.2-10.21,1.38-13.38-.78S24,64.67,22.29,57.94s-.57-10.44-.13-14a22.57,22.57,0,0,0,0-6.86c-.24-1.34-.52-2.16-.65-2.79a76.09,76.09,0,0,1,.7-7.82A18,18,0,0,1,23.73,21,20.09,20.09,0,0,0,24.14,19a41.28,41.28,0,0,1,1.93-4.83,5,5,0,0,1,1.3-1.89s-.78.8-1.17,1.17a1.91,1.91,0,0,0-.53.76,21.25,21.25,0,0,0,1.18-2.51,8.67,8.67,0,0,1,1.12-2l-1.77.84s.82-2,1.17-3a4.51,4.51,0,0,1,1.3-1.74L26.94,7s2-3.51,3.3-4.2a9,9,0,0,1,3.64-.6l-2.49-.26S39.5,1,40.76,1.22a29.94,29.94,0,0,1,3.89,1.25L42.8,1.31s7.93.32,9,.69,3,1.17,3,1.17L53.38,2S60.89,3.64,62,4.46s3,2.11,3,2.11L63.37,4.88S71,9.29,71.32,10.54a19.2,19.2,0,0,0,1.18,2.81l-.66-2.26a20.79,20.79,0,0,1,1.83,4A8.56,8.56,0,0,1,74,17.6S75.66,21,75.7,22.86s.48,4.77.48,4.77l-.78-1.74a11.45,11.45,0,0,1,.6,3.62,15.88,15.88,0,0,0,.29,3.37l-.55-1.23a6.69,6.69,0,0,1,.33,2,12.26,12.26,0,0,1-.33,2.41,12.54,12.54,0,0,1,.74,9.67c-1.78,5.39-3.08,8.15-5.66,8.56a4.43,4.43,0,0,1-3.91-1" fill="#db9064" fill-rule="evenodd"/><g mask="url(#a8a7874e-a9a2-4077-94c2-a9294bfd6341)"><path d="M66.17,58.06a14.38,14.38,0,0,1-3.33,6.57c-3.78,3.75-14.46,7.9-18.36,8.2s-10.21,1.38-13.38-.78c-.23-.16-.46-.33-.7-.52a32.6,32.6,0,0,0,10.05.08c4.9-1,10.32-6.77,18-10.84a26.2,26.2,0,0,1,7.69-2.71" fill="#ab603e" fill-rule="evenodd"/></g><path d="M46.32,55.86s2.76,3.72,2.34,6-7.5,9.8-8.69,10.29-7.18.38-8.3-.32-5-9.8-5-11.25a17.22,17.22,0,0,1,.57-4.16,24.42,24.42,0,0,0,7.85,1.85,18.56,18.56,0,0,0,11.23-2.41" fill="#f0a376" fill-rule="evenodd"/><path d="M31.15,62.13s1.6.87,5.39.59a21.7,21.7,0,0,0,6.28-1.34s-3.46,2.55-5.13,3A8.64,8.64,0,0,1,33,64.22a8.1,8.1,0,0,1-1.8-2.08" fill="#db9064" fill-rule="evenodd"/><path d="M42.48,57.3s6.31-.95,6.19-2.46S43,49,43,49a2.65,2.65,0,0,1-2.19,2c-2,.52-6.1.75-6.49.93s-.77,1.43-.77,1.43l0-1.48a8.48,8.48,0,0,1-3-.46,3.84,3.84,0,0,1-1.53-1s-2.68,3.61-2.66,4.92,4,2.43,7.85,2.84a25.2,25.2,0,0,0,8.34-.9" fill="#f0a376" fill-rule="evenodd"/><path d="M39.17,45.23,39,40s3.25,2.87,10.2,1.59,8-4.11,8-4.11,4.66,3.18,4.45,8.15S53.76,57.07,53,56.89s-2.95-4-6.39-6.66a82.15,82.15,0,0,0-7.41-5" fill="#f0a376" fill-rule="evenodd"/><path d="M33,36.84c0-.1.78-1.47,1.07-1.43a2.74,2.74,0,0,1,1.17,1.81c-.09.52-.06,6,0,7.35a3,3,0,0,0,.61,1.87s1.82-1.28,2.43-1.11A4.16,4.16,0,0,1,41,47.11a2.83,2.83,0,0,1-.4,2.57s-2.13-1.22-3.54-1-2.34,1.33-3.4,1.63a2.88,2.88,0,0,1-2.51-.44c-.59-.42-.84-.71-1-.78a3.62,3.62,0,0,0-1.07.24,1.45,1.45,0,0,1-.08-1.43,4.71,4.71,0,0,1,1.56-1.79c.26-.25,2.49-9.29,2.49-9.29" fill="#f0a376" fill-rule="evenodd"/><path d="M21.53,53.78c-.46-4.25.29-7.09.63-9.86.14-1.2.22-2.21.26-3.09a7.32,7.32,0,0,0,4,1.39,10.69,10.69,0,0,0,5.31-1.28L30.05,46.3s-.91,1-1.24,1.49A3.07,3.07,0,0,0,28.39,49a21.29,21.29,0,0,0-2.11,3c-1.5,2.36-1.57,3.72-2,4.24-.29.34-1.67-.66-2.73-2.45" fill="#f0a376" fill-rule="evenodd"/><path d="M21.53,34c0-1.15.4-4.73.72-7.54A17.81,17.81,0,0,1,23.72,21,20.71,20.71,0,0,0,24.13,19a43.18,43.18,0,0,1,1.93-4.84,5,5,0,0,1,1.31-1.88c-.26,0-.51,0-.76,0-.42,1-.93,1.89-.93,1.89a2.1,2.1,0,0,1,.52-.77c.39-.36,1.16-1.14,1.17-1.16h.06c2.2,0,6.51,1.67,8.2,1.93s4.87-1.39,8.62-2.78,7.64-2.82,13-.85a7.89,7.89,0,0,1,5.29,7.28L56.1,35.52a11,11,0,0,0-8.62-4.22c-5.91-.17-12.12,2.45-13.9,2.49S28.83,32,24.86,32.62A7.19,7.19,0,0,0,21.54,34" fill="#f0a376" fill-rule="evenodd"/><path d="M75.73,36.56s.67-1.1-2-.73a6.5,6.5,0,0,0-4.93,3.82A8.92,8.92,0,0,0,69.1,43a7.13,7.13,0,0,0-1.58,2.28,13.54,13.54,0,0,0-.1,3c0,.2,1.09.84,1.09.84s-.59,2.49-.31,2.61a15.21,15.21,0,0,0,3,1.23c.66,0,2.08-.95,2.13-1.45s-.23-4.18-.28-4.49.18-2.49.18-2.49l1.45,2.73s1.07-2.94.22-4.87-4.35-2.07-4.35-2.07,1.23-2.5,2.47-3.1a7.73,7.73,0,0,1,2.67-.64" fill="#f0a376" fill-rule="evenodd"/><path d="M73.18,52.93a3.88,3.88,0,0,1-2.35,1.34,4.52,4.52,0,0,1-3.86-1l.16-1.75a4.23,4.23,0,0,0,2.44,1.84,7.13,7.13,0,0,0,3.61-.45" fill="#db9064" fill-rule="evenodd"/><path d="M75.91,36.34a12.62,12.62,0,0,1,.58,9.37c-.13.4-.26.79-.39,1.16l-.84,1.7c-.85,1.75-3,2.28-3.92,2.52s3.23-2.8,3.64-5.72S72.5,38,72.5,38a17.93,17.93,0,0,1-.85,2.32,1.66,1.66,0,0,1-1.82,1s3.26.83,3.87,3.23-1.77,4.61-1.77,4.61a5.43,5.43,0,0,0-1.68-.14,11.82,11.82,0,0,0-2.68,1.54s.82-2.25,1.2-3.8a11.65,11.65,0,0,0-.16-4.07A9.72,9.72,0,0,1,70.78,38a6.32,6.32,0,0,1,5.13-1.7" fill="#cf8461" fill-rule="evenodd"/><path d="M72.62,36.8a7,7,0,0,1,2.21-.46,8.17,8.17,0,0,1,1.11,2.35c.91,2.94-.45,7.13-.45,7.13a43.75,43.75,0,0,0-1.22-5.27c-.37-.95-1.18-2.74-1.65-3.74m-4.43,12c.21-.66.43-1.38.58-2a11.65,11.65,0,0,0-.16-4.07A9.74,9.74,0,0,1,69,41.1c1.58.75,3.81,1.91,4.26,2.73.7,1.26-.52,3.53-.6,3.47s-.11-.33-.44-.76A12.38,12.38,0,0,0,70,45.12s.45,3.54.46,3.44A5.11,5.11,0,0,0,68.19,48.78Z" fill="#ab603e" fill-rule="evenodd"/><path d="M29.35,55.64a17.18,17.18,0,0,1-2,0l-.5-.11s-.22.28.05.91,2.28,2.66,5.93,3.23,13.7-1.55,14.52-2.46,1-1.25.87-1.6a1.3,1.3,0,0,0-.24-.52s-9.83,1.09-12.33,1-6.29-.46-6.29-.46" fill="#db9064" fill-rule="evenodd"/><path d="M41.42,46.71s7.94,5.88,8.12,7a11.63,11.63,0,0,1-.84,3.89c0-.09.61-2.66.28-3.52s-6.16-5.47-6.71-6.19-.85-1.16-.85-1.16" fill="#cc794a" fill-rule="evenodd"/><path d="M28.72,48.73s-3,5-3.17,6.05a10.61,10.61,0,0,0,.56,3.14,11,11,0,0,1,.4-4.05c.55-1.1,2.58-3.89,2.35-4.18a1.59,1.59,0,0,1-.14-.95" fill="#c2704a" fill-rule="evenodd"/><path d="M30.05,46.3a9.55,9.55,0,0,0-1.25,2c-.09.5-.13.66,0,.91a1.83,1.83,0,0,0,.23.38,1,1,0,0,1,1.09-.17c.66.25,1,1.2,2.21,1.24a4.28,4.28,0,0,0,2.69-.8,5.18,5.18,0,0,1,3.14-.76,5,5,0,0,1,2.33,1A1.77,1.77,0,0,0,41.56,48c-.38-1.5-2.39-2.72-2.39-2.72s2.54.67,3,2.1a2.27,2.27,0,0,1-1,3c-1,.49-1.67.76-1.77.82a12.88,12.88,0,0,0-3.61-.47c-1.67.16-2.14.57-2.68.57a3.73,3.73,0,0,1-1.85-.48A2.47,2.47,0,0,0,30,50.36a1.19,1.19,0,0,0-.59.07s-1.49-.68-1.24-1.79,1.89-2.34,1.89-2.34" fill="#c2704a" fill-rule="evenodd"/><path d="M22.43,40c0-.56,0-1-.05-1.48A5.66,5.66,0,0,1,23.66,36c1.25-1.15,4.38-.67,4.38-.67s-3-1.35-4-1a5.9,5.9,0,0,0-2,1.79c-.17-.78-.35-1.34-.45-1.8a10.67,10.67,0,0,1,.07-1.8,5.88,5.88,0,0,1,3-1.1,34.92,34.92,0,0,1,6.94.63,33,33,0,0,1,1.36,4.94,10.82,10.82,0,0,1-.67,2.76S28.7,41,26,40.3A8.19,8.19,0,0,0,22.43,40" fill="#cc794a" fill-rule="evenodd"/><path d="M38.22,31s-1.74,4.59-1.71,5.7,1.57,3.09,1.57,3.09a2.05,2.05,0,0,1,.72-1,8.54,8.54,0,0,1,1.05-.73l-1,1.18a23.08,23.08,0,0,1,5.23,0c2,.35,4.13-.37,6.06-.49a7.68,7.68,0,0,1,3.35.52s-1.11-2.8-2.78-3.69a19.37,19.37,0,0,0-6.31-1.42,6.31,6.31,0,0,0-1.92.12,4.55,4.55,0,0,1,2.95-1.26c1.85-.09,5.73,1,7.66,1.86S56,36.22,56,36.22s.24-1.09,0-1.37S51.21,30.12,48.22,30s-10,1-10,1" fill="#cc794a" fill-rule="evenodd"/><path d="M31.21,50.39s-.74-.9-1.11-1a1.21,1.21,0,0,0-.78.22,1.12,1.12,0,0,0,.91.46,1.79,1.79,0,0,1,1,.27" fill="#ab603e" fill-rule="evenodd"/><path d="M34.29,50.44a6.2,6.2,0,0,1,3.18-1.22c1.63,0,2.08.48,2.08.48s-.31.49-2.25.39a7.43,7.43,0,0,0-3,.35" fill="#ab603e" fill-rule="evenodd"/><path d="M23.85,37.87s.7-1.19,3-1.31a6.48,6.48,0,0,1,3.8.95,5.41,5.41,0,0,0-2.39-1.27,5.63,5.63,0,0,0-3.7.5,1.52,1.52,0,0,0-.7,1.13m8.73.54s-1.3-2.19-3-2.65-4.5-.4-5.54.47-1.19,3.14-1.19,3.14a1.86,1.86,0,0,1,1.77.17,8.11,8.11,0,0,0,4.71.27c1.72-.31,3.12-.62,3.12-.62Z" fill="#ab603e" fill-rule="evenodd"/><path d="M41,37.32a6.7,6.7,0,0,1,4.27-1.62c2.69-.07,5.57,2.16,5.57,2.16a3.71,3.71,0,0,0-2.41-2,9.35,9.35,0,0,0-5.31-.31A5.7,5.7,0,0,0,41,37.32m-2.24,1.09s1.57-3.07,4-3.65a12.75,12.75,0,0,1,7.28,1,5.9,5.9,0,0,1,2.43,2.75,16.38,16.38,0,0,0-3.36,0,12,12,0,0,1-3.86.54c-1.85-.08-3.23-.12-4.34-.12a4.28,4.28,0,0,0-1.54.19l1.3-1.59Z" fill="#ab603e" fill-rule="evenodd"/><path d="M39.73,50.39c1.69-.39,2.48-1.52,1.79-3.2a2.5,2.5,0,0,0-2-1.57c2.7.5,3.69,4.16.16,4.77" fill="#5e4f44" fill-rule="evenodd"/><path d="M30.05,46.3c-1.34,1.51-2.36,2.78-.29,3.93-2.51-1.15-1.19-2.51.29-3.93" fill="#5e4f44" fill-rule="evenodd"/><path d="M68.61,43.29c1.2,3,.73,4.41-1,7.05,1.45-2.43,2-4.32,1-7.05" fill="#5e4f44" fill-rule="evenodd"/><path d="M75.91,37.26l.47.2Zm-.54-.17.54.17-.14-.06a2.64,2.64,0,0,0-.4-.12ZM68.61,43.3c1.21-3.46,2.86-7.32,6.76-6.21-3.66-1-5.66,3.36-6.76,6.2Z" fill="#5e4f44" fill-rule="evenodd"/><path d="M67.56,50.34c1.37-1.39,2-2.07,3.89-1.48-1.69-.36-2.6.4-3.89,1.48" fill="#5e4f44" fill-rule="evenodd"/><path d="M71.45,48.85c1.64-1.67,2.88-3.15,1.08-5.26a10.43,10.43,0,0,0-3.17-2.2A12.63,12.63,0,0,1,72.18,43c2.63,2.06,1.25,4-.73,5.82" fill="#5e4f44" fill-rule="evenodd"/><path d="M72.49,37.36c3,4.65,4.32,8.65,0,13.11,4-4.3,2.74-8.6,0-13.11" fill="#5e4f44" fill-rule="evenodd"/><path d="M75.1,37c2.33,4.23,1.87,6.42-.53,10.48,2.1-3.85,2.55-6.49.53-10.48" fill="#5e4f44" fill-rule="evenodd"/><path d="M38.22,31a5.52,5.52,0,0,0-.17,1.67,4,4,0,0,0,.72,1.72,12.88,12.88,0,0,1,9.41-1.26C53.82,34.4,56,36.22,56,36.22s.3-.95,0-1.37S52,31,49.23,30.18s-11,.84-11,.84" fill="#75685f" fill-rule="evenodd" opacity="0.7" style="isolation:isolate"/><path d="M23.72,21A20.71,20.71,0,0,0,24.13,19a43.18,43.18,0,0,1,1.93-4.84,4.87,4.87,0,0,1,1.31-1.88s-.78.8-1.17,1.17a1.91,1.91,0,0,0-.53.76,21.25,21.25,0,0,0,1.18-2.51,8.67,8.67,0,0,1,1.12-2l-1.77.84s.82-2,1.17-3a4.51,4.51,0,0,1,1.3-1.74L26.94,7s2-3.51,3.3-4.2a9,9,0,0,1,3.64-.6l-2.49-.26S39.5,1,40.76,1.22a29.94,29.94,0,0,1,3.89,1.25L42.8,1.31s7.93.32,9,.69,3,1.17,3,1.17L53.38,2S60.89,3.64,62,4.46s3,2.11,3,2.11L63.37,4.88S71,9.29,71.32,10.54a19.2,19.2,0,0,0,1.18,2.81l-.66-2.26a20.79,20.79,0,0,1,1.83,4A8.56,8.56,0,0,1,74,17.6S75.66,21,75.7,22.86s.48,4.77.48,4.77l-.78-1.74a11.45,11.45,0,0,1,.6,3.62,15.88,15.88,0,0,0,.29,3.37l-.55-1.23a6.69,6.69,0,0,1,.33,2,12.26,12.26,0,0,1-.33,2.41s-2.17-1.4-5.38.59S66,42.72,66,42.72,62.67,41,62.63,40.65s1.22-4.92-.43-9-3.61-6.21-3.87-6.21,4.19-6.3,1.63-11-9.58-4.16-12.45-2.73-10.34,3.92-11.83,3.79-6.45-2.54-7.75-1.91S26,15.76,25.28,17.25,23.72,21,23.72,21" fill="#615851" fill-rule="evenodd"/><path d="M23.72,21A20.71,20.71,0,0,0,24.13,19a43.18,43.18,0,0,1,1.93-4.84,4.87,4.87,0,0,1,1.31-1.88s-.78.8-1.17,1.17a1.91,1.91,0,0,0-.53.76,21.25,21.25,0,0,0,1.18-2.51,8.67,8.67,0,0,1,1.12-2l-1.77.84s.82-2,1.17-3a4.51,4.51,0,0,1,1.3-1.74L26.94,7s2-3.51,3.3-4.2a9,9,0,0,1,3.64-.6l-2.49-.26S39.5,1,40.76,1.22a29.94,29.94,0,0,1,3.89,1.25L42.8,1.31s7.93.32,9,.69,3,1.17,3,1.17L53.38,2S60.89,3.64,62,4.46s3,2.11,3,2.11L63.37,4.88S71,9.29,71.32,10.54a19.2,19.2,0,0,0,1.18,2.81l-.66-2.26a20.79,20.79,0,0,1,1.83,4A8.56,8.56,0,0,1,74,17.6S75.66,21,75.7,22.86s.48,4.77.48,4.77l-.78-1.74a11.45,11.45,0,0,1,.6,3.62,16.43,16.43,0,0,0,.07,1.86c-1.52-2-3.36-4.22-5.36-6.37-3.94-4.26-6.7-8-10.45-10-.09-.2-.18-.4-.29-.6-2.56-4.76-9.59-4.15-12.46-2.72s-10.34,3.92-11.83,3.79-6.45-2.54-7.75-1.91S26,15.76,25.28,17.25,23.72,21,23.72,21" fill="#5c5149" fill-rule="evenodd"/><path d="M26.18,13.89a4.89,4.89,0,0,1,1.19-1.63s-.78.8-1.17,1.17a1.91,1.91,0,0,0-.53.76,21.25,21.25,0,0,0,1.18-2.51,6.79,6.79,0,0,1,.47-1c.42-.4.8-.74,1.07-.95a4.78,4.78,0,0,1,2.88-.57,11.82,11.82,0,0,0-3.2.07,4.6,4.6,0,0,0-1.6.58c.27-.68.68-1.73.9-2.36a4.43,4.43,0,0,1,1.3-1.73l-1.73,1.2s2-3.5,3.3-4.19l.35-.16a11.31,11.31,0,0,1,3,0c4,.55,6.5,4.59,6.5,4.59a16,16,0,0,0-4-4.59,6.74,6.74,0,0,0-2.4-1,58.55,58.55,0,0,1,7.08-.43l.27.05c2.58,1.39,6.58,3.84,6.58,3.84S46.85,4.15,46,3a11,11,0,0,0-1.79-1.64c1.58.07,4.14.21,5.88.38,3.15,1.15,7.36,3,7.36,3a8.5,8.5,0,0,1-2.75-2,5.43,5.43,0,0,0-.61-.57c1.51.33,5.11,1.17,7,1.83A62.61,62.61,0,0,1,67,8.64a17.41,17.41,0,0,1-1.43-1.78c-.26-.36-.66-.84-1.12-1.36a50,50,0,0,1,6.34,4.33,50.91,50.91,0,0,1,1.9,5.36s.07-.69.07-1.56a7.07,7.07,0,0,0-.29-1.44,15.13,15.13,0,0,1,1.22,2.91,10.55,10.55,0,0,1,.22,1.12,6,6,0,0,1-.63,1.36,8.66,8.66,0,0,1,1,.7,14.75,14.75,0,0,1,1.44,4.59c0,1.35.27,3.25.4,4.19-.55-1-1.57-3.56-1.68-3.71s.35,1,1,2.92l.53,1.64A8.66,8.66,0,0,1,76,29.52a14.45,14.45,0,0,0,.06,1.86c-1.51-2-3.35-4.23-5.35-6.37l-1.19-1.29a17.14,17.14,0,0,1,2.39,1.53,6,6,0,0,1-1.45-1.43A9.14,9.14,0,0,0,68,22c-2.63-3-4.89-5.46-7.71-6.93a4.78,4.78,0,0,0-.28-.61,13.19,13.19,0,0,1,3.3,1.81,7.53,7.53,0,0,1-1.77-1.61,5.13,5.13,0,0,0-1.34-1.33c-.08,0,2,.48,2.19.48a18.62,18.62,0,0,1-1.66-1,30.11,30.11,0,0,0-4.48-1.9c.08,0,2.95-.91,2.95-.91a11.51,11.51,0,0,1-2.85.4,4,4,0,0,1-2-.5,7.21,7.21,0,0,0,.94.5A11,11,0,0,1,53.39,10c-.76-.26-6-1-6-1a7.5,7.5,0,0,0,2,.88A17.13,17.13,0,0,0,52,10.4a16.94,16.94,0,0,1-2,.12c-1.32,0-2.52.88-4.5.9s-4-2.68-4-2.68.57.87,1.41,2a6.7,6.7,0,0,0,1.58,1.57,18.52,18.52,0,0,1-4.29,1.22c-1.13-.05-3.86-1.59-3.91-1.5s2.9,1.85,2.9,1.85a11.36,11.36,0,0,1-5.3.08c-2.65-.67-4.22-3.64-4.22-3.64s.12.24.47,1A15.59,15.59,0,0,0,32,13.62a7.54,7.54,0,0,0-4-.72,4.45,4.45,0,0,0-1.88,1" fill="#615851" fill-rule="evenodd"/><path d="M40.48,38.6S42.89,36,45.17,36A7.74,7.74,0,0,1,49.59,38a15.07,15.07,0,0,1-4.53.76c-2.09-.06-2-.26-3.2-.19s-1.38.08-1.38.08" fill="#797d85" fill-rule="evenodd"/><path d="M49.13,38.1a12.58,12.58,0,0,1-4.07.61c-1.82-.05-2.4-.24-3.2-.19l-.88,0c.84-.69,2.52-2.08,4.16-2.1a7.65,7.65,0,0,1,4,1.63" fill="#b5bbc2" fill-rule="evenodd"/><path d="M48.8,38.19a12.07,12.07,0,0,1-3.74.52c-1.68-.06-2-.25-3.05-.2a3.07,3.07,0,0,1,2.37-1.78c1.13-.15,4.24,1,4.42,1.45" fill="#e6e6e6" fill-rule="evenodd"/><path d="M44.91,36h.17a9.57,9.57,0,0,1,3.32.85,1.66,1.66,0,0,1,0,.32,5.88,5.88,0,0,1-.15,1.21,10.41,10.41,0,0,1-3.57.35,2.44,2.44,0,0,1-.41-1.3A2.57,2.57,0,0,1,44.9,36" fill="#5e4f44" fill-rule="evenodd"/><path d="M40.48,38.6a8.62,8.62,0,0,1,2.1-1.75A4.17,4.17,0,0,0,42.32,38a1.08,1.08,0,0,0,.09.5c-.15,0-.33,0-.54,0-1.21.08-1.39.08-1.39.08" fill="#b45553" fill-rule="evenodd"/><path d="M40.48,38.6a9,9,0,0,1,1-.85.91.91,0,0,0,.16.79l-1.16.06" fill="#903937" fill-rule="evenodd"/><path d="M32,39a8.15,8.15,0,0,0-4.51-2.12,3.72,3.72,0,0,0-3.37,1.77s.72,1.34,3.15,1.12A35.6,35.6,0,0,0,32,39" fill="#797d85" fill-rule="evenodd"/><path d="M24.3,38.86a3.37,3.37,0,0,0,3,.9,37.06,37.06,0,0,0,4.2-.66,7.53,7.53,0,0,0-4-1.7,3.74,3.74,0,0,0-3.15,1.46" fill="#b5bbc2" fill-rule="evenodd"/><path d="M24.48,39a3.59,3.59,0,0,0,2.8.72c1.24-.11,2.45-.31,3.33-.48.13-.24.28-.37-.85-1a4.27,4.27,0,0,0-4-.26,3,3,0,0,0-1.31,1" fill="#e6e6e6" fill-rule="evenodd"/><path d="M32,39a8.37,8.37,0,0,0-1.22-.93,1.12,1.12,0,0,1,.12.67.9.9,0,0,1-.4.57c.9-.17,1.5-.31,1.5-.31" fill="#b45553" fill-rule="evenodd"/><path d="M32,39s-.2-.19-.55-.46a.78.78,0,0,1-.14.61L32,39" fill="#903937" fill-rule="evenodd"/><path d="M30.19,37.7a6.29,6.29,0,0,0-2.69-.83,4.46,4.46,0,0,0-.82.05,2,2,0,0,0,.17,2.87,3,3,0,0,0,.42,0c.94-.08,1.87-.22,2.64-.34a2,2,0,0,0,.35-1.15,1.77,1.77,0,0,0-.08-.56" fill="#5e4f44" fill-rule="evenodd"/><path d="M42.4,38.5c-.3,0-.6,0-.9,0a9,9,0,0,0-.94.1,12.21,12.21,0,0,1,3.29-2.13,4.91,4.91,0,0,1,3.26.13A7.07,7.07,0,0,1,49.26,38l-.88.34a12.9,12.9,0,0,1,1.52-.2,2.85,2.85,0,0,1,.65,0S48,35.83,45.78,35.8a6.8,6.8,0,0,0-4.2,1.67,11.76,11.76,0,0,0-1.38,1.27Z" fill="#5e4f44" fill-rule="evenodd"/><path d="M25.12,39.46l-.81-.78s.27-.81,1.9-1.35a5.2,5.2,0,0,1,4,.65c.66.41,1.61,1,1.61,1l-1.35.35L32.44,39a12.74,12.74,0,0,0-2.37-1.62,5.83,5.83,0,0,0-4.16-.55,3.38,3.38,0,0,0-2.48,2s.16-.18.77.18a9,9,0,0,0,.92.48" fill="#5e4f44" fill-rule="evenodd"/><path d="M39.49,37.82c.09-.09,1.95-2.32,4-2.59s4.86,0,6.44,1.18,1.86,1.37,1.86,1.37a6.46,6.46,0,0,0-2.46-2.09,13.16,13.16,0,0,0-5.51-.77,5.59,5.59,0,0,0-3.4,1.68,2.41,2.41,0,0,0-.9,1.23" fill="#5e4f44" fill-rule="evenodd"/><path d="M32.09,38.11a6.92,6.92,0,0,0-3.39-2c-1.86-.3-3.74,0-4.41.67a3.69,3.69,0,0,0-.89,1.59,1.93,1.93,0,0,1,.51-1.68c.74-.77,3-1.29,5-.87a5.8,5.8,0,0,1,3.18,2.24" fill="#5e4f44" fill-rule="evenodd"/><g mask="url(#fa31da17-ceb6-44f0-963b-d80023299c2d)"><path d="M45,36.05h.17a9,9,0,0,1,3.11.79,1,1,0,0,1,0,.3,5.55,5.55,0,0,1-.13,1.15,10.16,10.16,0,0,1-3.35.35,2.32,2.32,0,0,1-.39-1.22A2.47,2.47,0,0,1,45,36.07" fill="#b35b32" fill-rule="evenodd"/></g><g mask="url(#bca7e80f-59db-4260-b05a-60a5013184e6)"><path d="M30.1,37.73a5.88,5.88,0,0,0-2.57-.79,4.09,4.09,0,0,0-.78.05,1.93,1.93,0,0,0,.18,2.73l.39,0c.9-.08,1.78-.21,2.52-.34a1.93,1.93,0,0,0,.26-1.63" fill="#b35b32" fill-rule="evenodd"/></g><path d="M34.49,50.3a11.05,11.05,0,0,1,3-1,3.76,3.76,0,0,1,1.68.24,8.12,8.12,0,0,1-2,.26,10.85,10.85,0,0,0-2.65.48" fill="#4a3d34" fill-rule="evenodd"/><path d="M31,50.22a3.7,3.7,0,0,0-.84-.68,1.1,1.1,0,0,0-.62.1s.08.35.6.33a1.5,1.5,0,0,1,.87.25" fill="#4a3d34" fill-rule="evenodd"/><path d="M33.9,55.12a22.6,22.6,0,0,1,5.57-.32c3.17.19,8.12,1,8.16,1.17s0,.48-.53.86A15,15,0,0,1,36.51,62c-6.78.31-7.23-2.78-8.06-4.22s-1.2-1.65-1.2-1.65A7.71,7.71,0,0,1,31,54.65a7,7,0,0,1,2.88.47" fill="#cc7370" fill-rule="evenodd"/><path d="M44.3,55.31a15,15,0,0,1,3.33.66c0,.23,0,.48-.53.86-.11.08-.37.37-.77.78-.64.24-1.28.51-1.89.81a18.28,18.28,0,0,1-9.34,1.76c-4-.22-4.52-.52-5.63-1.88a7.54,7.54,0,0,0-1.57-1.41,2.67,2.67,0,0,0-.64-.74,6.16,6.16,0,0,1,.8-.53,7.69,7.69,0,0,1,.92-.07A21.32,21.32,0,0,1,33.9,56c1.72.3,6.81-.38,10.4-.72" fill="#a15245" fill-rule="evenodd"/><path d="M28,56.42a4.79,4.79,0,0,1,2.52-.53c1.56.06,2.59.5,4,.59s7.11-.6,9.7-.67a8.38,8.38,0,0,1,3.37.3,17.42,17.42,0,0,1-10.07,3.46c-6.51.35-6.14,0-7.51-1.55s-2-1.61-2-1.61" fill="#5e4f44" fill-rule="evenodd"/><path d="M30.08,55.9h.46c1.56.07,2.59.5,4,.59s7.11-.6,9.7-.67a15.71,15.71,0,0,1,2.06,0c0,.37,0,.8-.06,1.2a18.93,18.93,0,0,1-8.7,2.51c-6.48.35-6.14,0-7.48-1.53Z" fill="#b5bbc2" fill-rule="evenodd"/><path d="M45.22,57.63a19.58,19.58,0,0,1-7.66,1.95c-5.45.29-6.08.06-6.94-.91,0-.86,0-2.09,0-2.09s.83.71,4.07.87,10.51-1,10.51-1Z" fill="#e6e6e6" fill-rule="evenodd"/><path d="M30.47,59.77a13.71,13.71,0,0,0,4,.78c2.35.1,4.89-.07,4.89-.07s-4.46,1.32-6.61.75-2.29-1.46-2.29-1.46" fill="#e48a86" fill-rule="evenodd"/><path d="M31.51,32a5.28,5.28,0,0,1,.26,1.53,2.16,2.16,0,0,1-.43,1.27s-5.93-1.16-7.51-.62a3.55,3.55,0,0,0-2.1,1.92,6.83,6.83,0,0,1-.48-2.83c.23-.9,1.65-1.94,4.1-1.94a44.17,44.17,0,0,1,6.16.67" fill="#75685f" fill-rule="evenodd" opacity="0.7" style="isolation:isolate"/><path d="M46.44,36.3a1.14,1.14,0,1,1-1.14,1.14h0a1.14,1.14,0,0,1,1.14-1.13" fill="#5e4f44" fill-rule="evenodd"/><path d="M47.41,36.38a.34.34,0,0,1,.34.34.32.32,0,0,1-.33.33.34.34,0,0,1-.34-.33h0a.34.34,0,0,1,.33-.34" fill="#fff" fill-rule="evenodd"/><path d="M28.31,37.32a1.13,1.13,0,1,1-1.14,1.13h0a1.13,1.13,0,0,1,1.14-1.13h0" fill="#5e4f44" fill-rule="evenodd"/><path d="M29.28,37.4a.32.32,0,0,1,.34.33.34.34,0,0,1-.33.34.34.34,0,0,1-.34-.34h0a.33.33,0,0,1,.33-.33" fill="#fff" fill-rule="evenodd"/><path d="M66.92,53.24s-.3,7.64-4.08,11.39-14.46,7.9-18.37,8.2-10.2,1.38-13.37-.78S24,64.67,22.29,57.94s-.57-10.44-.13-14a22.57,22.57,0,0,0,0-6.86c-.24-1.34-.52-2.16-.65-2.78a76,76,0,0,1,.7-7.83A17.82,17.82,0,0,1,23.73,21,20.71,20.71,0,0,0,24.14,19a41.32,41.32,0,0,1,1.93-4.84,5,5,0,0,1,1.3-1.89s-.78.8-1.17,1.17a1.91,1.91,0,0,0-.53.76,21.25,21.25,0,0,0,1.18-2.51,8.67,8.67,0,0,1,1.12-2l-1.77.84s.82-2,1.17-3a4.51,4.51,0,0,1,1.3-1.74L26.94,7s2-3.52,3.3-4.21a9,9,0,0,1,3.64-.6l-2.49-.26s8.12-.89,9.37-.67a29.94,29.94,0,0,1,3.89,1.25L42.8,1.31s7.93.32,9,.69,3,1.17,3,1.17L53.38,2S60.89,3.64,62,4.46s3,2.11,3,2.11L63.37,4.88S71,9.29,71.32,10.54a19.2,19.2,0,0,0,1.18,2.81l-.66-2.26a20.79,20.79,0,0,1,1.83,4A8.56,8.56,0,0,1,74,17.6S75.66,21,75.7,22.86s.48,4.77.48,4.77l-.78-1.74a11.45,11.45,0,0,1,.6,3.62,15.88,15.88,0,0,0,.29,3.37l-.55-1.23a6.69,6.69,0,0,1,.33,2,12.26,12.26,0,0,1-.33,2.41,12.54,12.54,0,0,1,.74,9.67c-1.78,5.39-3.08,8.15-5.66,8.56A4.39,4.39,0,0,1,66.92,53.24Z" fill="none" stroke="#5e4f44" stroke-linecap="round" stroke-linejoin="round"/></svg>